<svg width="29" height="29" viewBox="0 0 29 29" fill="none" xmlns="http://www.w3.org/2000/svg">
<path d="M14.1175 3.5293H5.88224C5.2582 3.5293 4.65972 3.7772 4.21846 4.21846C3.7772 4.65972 3.5293 5.2582 3.5293 5.88224V22.3528C3.5293 22.9769 3.7772 23.5753 4.21846 24.0166C4.65972 24.4579 5.2582 24.7058 5.88224 24.7058H22.3528C22.9769 24.7058 23.5753 24.4579 24.0166 24.0166C24.4579 23.5753 24.7058 22.9769 24.7058 22.3528V14.1175" stroke="white" stroke-width="2.35294" stroke-linecap="round" stroke-linejoin="round"/>
<path d="M21.6188 3.08839C22.0868 2.62036 22.7216 2.35742 23.3835 2.35742C24.0454 2.35742 24.6802 2.62036 25.1482 3.08839C25.6162 3.55642 25.8792 4.1912 25.8792 4.85309C25.8792 5.51499 25.6162 6.14977 25.1482 6.6178L14.5447 17.2225C14.2653 17.5016 13.9202 17.7059 13.5411 17.8166L10.1611 18.8049C10.0599 18.8344 9.9526 18.8362 9.85045 18.81C9.7483 18.7838 9.65506 18.7307 9.58049 18.6561C9.50593 18.5815 9.45278 18.4883 9.42661 18.3861C9.40044 18.284 9.40221 18.1767 9.43173 18.0754L10.42 14.6954C10.5312 14.3167 10.7359 13.972 11.0153 13.6931L21.6188 3.08839Z" stroke="white" stroke-width="2.35294" stroke-linecap="round" stroke-linejoin="round"/>
</svg>
