<svg width="23" height="23" viewBox="0 0 23 23" fill="none" xmlns="http://www.w3.org/2000/svg">
<path d="M9.58429 19.1667C9.58421 19.3448 9.63375 19.5193 9.72736 19.6708C9.82097 19.8223 9.95494 19.9448 10.1142 20.0244L12.0309 20.9827C12.1771 21.0557 12.3394 21.0902 12.5026 21.0828C12.6659 21.0754 12.8245 21.0264 12.9634 20.9405C13.1023 20.8545 13.217 20.7345 13.2965 20.5918C13.376 20.4491 13.4177 20.2884 13.4176 20.125V13.4167C13.4178 12.9417 13.5944 12.4837 13.9131 12.1315L20.8351 4.47542C20.9592 4.33795 21.0408 4.16749 21.07 3.98464C21.0992 3.80179 21.0749 3.61438 20.9999 3.44509C20.9248 3.27579 20.8024 3.13186 20.6473 3.03068C20.4922 2.92951 20.3111 2.87544 20.126 2.875H2.87596C2.69062 2.87507 2.50928 2.92887 2.3539 3.0299C2.19853 3.13093 2.07578 3.27484 2.00052 3.44421C1.92527 3.61358 1.90074 3.80114 1.92991 3.98417C1.95908 4.16719 2.0407 4.33783 2.16487 4.47542L9.08883 12.1315C9.40751 12.4837 9.58407 12.9417 9.58429 13.4167V19.1667Z" stroke="#000D57" stroke-width="1.88235" stroke-linecap="round" stroke-linejoin="round"/>
</svg>
