<svg width="36" height="36" viewBox="0 0 36 36" fill="none" xmlns="http://www.w3.org/2000/svg">
<path d="M0 17.6658C0 7.90923 7.90923 0 17.6658 0C27.4223 0 35.3315 7.90923 35.3315 17.6658C35.3315 27.4223 27.4223 35.3315 17.6658 35.3315C7.90923 35.3315 0 27.4223 0 17.6658Z" fill="#EEEEEE"/>
<path d="M21.3468 10.3055H13.986C11.9534 10.3055 10.3057 11.9532 10.3057 13.9858V21.3466C10.3057 23.3792 11.9534 25.0269 13.986 25.0269H21.3468C23.3794 25.0269 25.0271 23.3792 25.0271 21.3466V13.9858C25.0271 11.9532 23.3794 10.3055 21.3468 10.3055Z" stroke="#000D57" stroke-width="1.47215" stroke-linecap="round" stroke-linejoin="round"/>
<path d="M20.6121 17.2017C20.703 17.8143 20.5983 18.44 20.3131 18.9897C20.0279 19.5394 19.5766 19.9851 19.0234 20.2636C18.4702 20.542 17.8433 20.6389 17.2319 20.5405C16.6205 20.4421 16.0556 20.1535 15.6177 19.7156C15.1798 19.2777 14.8912 18.7128 14.7928 18.1014C14.6944 17.49 14.7913 16.8631 15.0697 16.3099C15.3481 15.7567 15.7939 15.3054 16.3436 15.0202C16.8933 14.735 17.519 14.6303 18.1315 14.7212C18.7564 14.8138 19.3349 15.105 19.7816 15.5517C20.2283 15.9984 20.5195 16.5769 20.6121 17.2017Z" stroke="#000D57" stroke-width="1.47215" stroke-linecap="round" stroke-linejoin="round"/>
<path d="M21.7163 13.6172H21.7236" stroke="#000D57" stroke-width="1.47215" stroke-linecap="round" stroke-linejoin="round"/>
</svg>
