<svg width="14" height="14" viewBox="0 0 14 14" fill="none" xmlns="http://www.w3.org/2000/svg">
<g clip-path="url(#clip0_1226_3746)">
<path d="M11.6659 5.83317C11.6659 8.74575 8.43477 11.7791 7.34977 12.7159C7.24869 12.7919 7.12565 12.833 6.99919 12.833C6.87272 12.833 6.74968 12.7919 6.6486 12.7159C5.5636 11.7791 2.33252 8.74575 2.33252 5.83317C2.33252 4.59549 2.82418 3.40851 3.69935 2.53334C4.57452 1.65817 5.76151 1.1665 6.99919 1.1665C8.23686 1.1665 9.42385 1.65817 10.299 2.53334C11.1742 3.40851 11.6659 4.59549 11.6659 5.83317Z" stroke="#000D57" stroke-opacity="0.7" stroke-width="1.17772" stroke-linecap="round" stroke-linejoin="round"/>
<path d="M6.99951 7.58325C7.96601 7.58325 8.74951 6.79975 8.74951 5.83325C8.74951 4.86675 7.96601 4.08325 6.99951 4.08325C6.03301 4.08325 5.24951 4.86675 5.24951 5.83325C5.24951 6.79975 6.03301 7.58325 6.99951 7.58325Z" stroke="#000D57" stroke-opacity="0.7" stroke-width="1.17772" stroke-linecap="round" stroke-linejoin="round"/>
</g>
<defs>
<clipPath id="clip0_1226_3746">
<rect width="14" height="14" fill="white"/>
</clipPath>
</defs>
</svg>
