<svg width="36" height="36" viewBox="0 0 36 36" fill="none" xmlns="http://www.w3.org/2000/svg">
<path d="M0 17.6658C0 7.90923 7.90923 0 17.6658 0V0C27.4223 0 35.3315 7.90923 35.3315 17.6658V17.6658C35.3315 27.4223 27.4223 35.3315 17.6658 35.3315V35.3315C7.90923 35.3315 0 27.4223 0 17.6658V17.6658Z" fill="#EEEEEE"/>
<g clip-path="url(#clip0_1378_957)">
<path d="M10.6708 21.3464C10.1566 18.9198 10.1566 16.4123 10.6708 13.9857C10.7384 13.7393 10.8689 13.5147 11.0496 13.334C11.2303 13.1533 11.4549 13.0227 11.7013 12.9552C15.6492 12.3012 19.6778 12.3012 23.6257 12.9552C23.8721 13.0227 24.0967 13.1533 24.2774 13.334C24.4581 13.5147 24.5886 13.7393 24.6562 13.9857C25.1704 16.4123 25.1704 18.9198 24.6562 21.3464C24.5886 21.5928 24.4581 21.8175 24.2774 21.9981C24.0967 22.1788 23.8721 22.3094 23.6257 22.3769C19.6778 23.0311 15.6492 23.0311 11.7013 22.3769C11.4549 22.3094 11.2303 22.1788 11.0496 21.9981C10.8689 21.8175 10.7384 21.5928 10.6708 21.3464Z" stroke="#000D57" stroke-width="1.47215" stroke-linecap="round" stroke-linejoin="round"/>
<path d="M16.1934 19.8741L19.8737 17.6659L16.1934 15.4576V19.8741Z" stroke="#000D57" stroke-width="1.47215" stroke-linecap="round" stroke-linejoin="round"/>
</g>
<defs>
<clipPath id="clip0_1378_957">
<rect width="17.6658" height="17.6658" fill="white" transform="translate(8.83301 8.83289)"/>
</clipPath>
</defs>
</svg>
