<svg width="36" height="36" viewBox="0 0 36 36" fill="none" xmlns="http://www.w3.org/2000/svg">
<path d="M0 17.6658C0 7.90923 7.90923 0 17.6658 0C27.4223 0 35.3315 7.90923 35.3315 17.6658C35.3315 27.4223 27.4223 35.3315 17.6658 35.3315C7.90923 35.3315 0 27.4223 0 17.6658Z" fill="#EEEEEE"/>
<path d="M22.0822 10.3057H19.8739C18.8978 10.3057 17.9617 10.6934 17.2715 11.3836C16.5813 12.0738 16.1936 13.0099 16.1936 13.986V16.1943H13.9854V19.1385H16.1936V25.0271H19.1379V19.1385H21.3461L22.0822 16.1943H19.1379V13.986C19.1379 13.7908 19.2154 13.6036 19.3535 13.4655C19.4915 13.3275 19.6787 13.25 19.8739 13.25H22.0822V10.3057Z" stroke="#000D57" stroke-width="1.47215" stroke-linecap="round" stroke-linejoin="round"/>
</svg>
