<svg width="36" height="36" viewBox="0 0 36 36" fill="none" xmlns="http://www.w3.org/2000/svg">
<path d="M0 17.6658C0 7.90923 7.90923 0 17.6658 0C27.4223 0 35.3315 7.90923 35.3315 17.6658C35.3315 27.4223 27.4223 35.3315 17.6658 35.3315C7.90923 35.3315 0 27.4223 0 17.6658Z" fill="#EEEEEE"/>
<path d="M25.0266 11.7776C25.0266 11.7776 24.5114 13.3234 23.5545 14.2803C24.7322 21.641 16.6354 27.0143 10.3052 22.8187C11.9245 22.8923 13.5439 22.3771 14.7216 21.3466C11.0412 20.2425 9.20107 15.8996 11.0412 12.5137C12.6606 14.4275 15.1633 15.5316 17.6659 15.458C17.0034 12.3665 20.6102 10.5999 22.8184 12.6609C23.6281 12.6609 25.0266 11.7776 25.0266 11.7776Z" stroke="#000D57" stroke-width="1.47215" stroke-linecap="round" stroke-linejoin="round"/>
</svg>
