<svg width="14" height="14" viewBox="0 0 14 14" fill="none" xmlns="http://www.w3.org/2000/svg">
<g clip-path="url(#clip0_1226_3752)">
<path d="M6.72429 1.33853C6.74986 1.28688 6.78935 1.2434 6.83831 1.21301C6.88727 1.18261 6.94375 1.1665 7.00138 1.1665C7.059 1.1665 7.11549 1.18261 7.16445 1.21301C7.21341 1.2434 7.2529 1.28688 7.27846 1.33853L8.62596 4.06794C8.71473 4.24759 8.84577 4.40301 9.00782 4.52087C9.16988 4.63873 9.35812 4.71551 9.55638 4.74461L12.5699 5.18561C12.627 5.19388 12.6806 5.21797 12.7247 5.25514C12.7689 5.29232 12.8017 5.34109 12.8196 5.39596C12.8374 5.45083 12.8395 5.5096 12.8257 5.56561C12.8119 5.62163 12.7827 5.67266 12.7414 5.71294L10.562 7.83511C10.4183 7.97517 10.3108 8.14806 10.2487 8.33889C10.1866 8.52973 10.1718 8.73279 10.2056 8.93061L10.7201 11.9289C10.7302 11.986 10.724 12.0448 10.7023 12.0985C10.6806 12.1522 10.6443 12.1988 10.5974 12.2329C10.5505 12.2669 10.4949 12.2871 10.4371 12.2911C10.3793 12.2952 10.3215 12.2828 10.2704 12.2556L7.57654 10.8393C7.39904 10.7461 7.20156 10.6974 7.00108 10.6974C6.8006 10.6974 6.60312 10.7461 6.42563 10.8393L3.73238 12.2556C3.68124 12.2827 3.62352 12.2949 3.56581 12.2908C3.50809 12.2867 3.45268 12.2664 3.40588 12.2324C3.35908 12.1984 3.32278 12.1519 3.30109 12.0982C3.27941 12.0446 3.27321 11.9859 3.28321 11.9289L3.79713 8.93119C3.83107 8.73329 3.81637 8.53009 3.75427 8.33914C3.69218 8.14818 3.58456 7.9752 3.44071 7.83511L1.26138 5.71353C1.21972 5.67329 1.1902 5.62217 1.17619 5.56599C1.16217 5.5098 1.16421 5.4508 1.18209 5.39572C1.19996 5.34064 1.23295 5.29168 1.27729 5.25443C1.32163 5.21718 1.37554 5.19313 1.43288 5.18503L4.44579 4.74461C4.64428 4.71573 4.83277 4.63906 4.99505 4.52118C5.15733 4.40331 5.28854 4.24777 5.37738 4.06794L6.72429 1.33853Z" fill="#CACA00" stroke="#CACA00" stroke-width="1.17772" stroke-linecap="round" stroke-linejoin="round"/>
</g>
<defs>
<clipPath id="clip0_1226_3752">
<rect width="14" height="14" fill="white"/>
</clipPath>
</defs>
</svg>
