<svg width="15" height="15" viewBox="0 0 15 15" fill="none" xmlns="http://www.w3.org/2000/svg">
<path d="M7.97135 0.18644C7.70354 -0.0627976 7.2917 -0.0627976 7.02508 0.18644L0.224964 6.53056C0.0821298 6.6642 0 6.85204 0 7.0495V14.2918C0 14.6819 0.313046 14.9986 0.698699 14.9986H5.43009C5.81574 14.9986 6.12879 14.6819 6.12879 14.2918V10.9735C6.12879 10.2089 6.74417 9.58642 7.5 9.58642C8.25583 9.58642 8.87121 10.2089 8.87121 10.9735V14.2918C8.87121 14.6819 9.18426 14.9986 9.56991 14.9986H14.3025C14.6881 14.9986 15.0012 14.6819 15.0012 14.2918V7.0495C15.0012 6.85204 14.9191 6.6642 14.7762 6.53056L7.97135 0.18644ZM13.6038 13.5875H10.2674V10.9759C10.2674 9.43231 9.02595 8.17649 7.5 8.17649C5.97405 8.17649 4.73258 9.43231 4.73258 10.9759V13.5875H1.39621V7.36014L7.49881 1.66621L13.6038 7.35894V13.5863V13.5875Z" fill="black"/>
</svg>
